<svg xmlns="http://www.w3.org/2000/svg" width="301.109" height="371.172" viewBox="0 0 301.109 371.172">
  <g id="Group_2" data-name="Group 2" transform="translate(-331.891 -82.443)">
    <g id="Group_1" data-name="Group 1">
      <path id="Path_1" data-name="Path 1" d="M630.285,185.4c-3.665,6.773-9.1,11.961-15.276,16.387a232.558,232.558,0,0,1-43,24.479c-10.284,4.478-20.433,9.285-30.943,13.2-14.422,5.353-28.987,10.346-43.7,14.875-10.675,3.273-21.432,6.269-32.292,8.852a493.1,493.1,0,0,1-50.449,9.419c-5.209.68-10.428,1.266-15.636,1.956-5.178.69-10.387.453-14.638.772-12.692-.154-24.324-1.245-35.349-5.733-8.7-3.552-14.329-9.924-16.562-19.116-.978-4.015-.505-8.081.2-12.1a51.164,51.164,0,0,1,9.028-21.03,138.059,138.059,0,0,1,17.046-20,168.843,168.843,0,0,1,19.136-15.317,5.917,5.917,0,0,0,1.864-2.45l2.594.278c.5,3.181.844,5.322.844,5.322a14.536,14.536,0,0,1-1.091,4.467c103.153,11.344,157.72-15.1,182.652-34.021a2.117,2.117,0,0,1-1.75-1.677c-.731-2.4-1.462-4.8-2.213-7.185.556-.4,1.091-.8,1.616-1.205a2.345,2.345,0,0,0,.4.083c15.276,2.274,30.573,4.477,45.293,9.377,6.547,2.182,12.939,4.746,18.312,9.265,3.335,2.8,5.827,6.114,6.485,10.561C633.445,178.715,632.045,182.133,630.285,185.4Z" fill="#fff"/>
    </g>
    <path id="Path_2" data-name="Path 2" d="M564.724,155.636c-24.932,18.92-79.5,45.365-182.652,34.021a14.536,14.536,0,0,0,1.091-4.467s-.34-2.141-.844-5.322c99.324,10.4,153.026-14.442,178.442-33.094.751,2.388,1.482,4.786,2.213,7.185A2.117,2.117,0,0,0,564.724,155.636Z"/>
    <path id="Path_3" data-name="Path 3" d="M560.761,146.774c-25.416,18.652-79.118,43.491-178.442,33.094-.937-5.95-2.471-15.523-3.428-21.308a135.481,135.481,0,0,1-2.028-23.768c.062-4.694.36-9.419,2.059-13.917a22.934,22.934,0,0,1,7.761-10.006c6.784-5.353,13.825-10.335,21.8-13.742a151.892,151.892,0,0,1,29.379-8.822,193.771,193.771,0,0,1,24.5-2.954c7.452-.546,14.895-1.1,22.358-1.482,4.766-.248,9.532-.278,14.3-.433,5.239-.164,10.479-.123,15.729-.01a88.875,88.875,0,0,0,13.114-.854c5.353-.68,9.542,1.327,11.93,6.176,3.191,6.475,5.466,13.33,8.04,20.062C552.608,121.307,556.8,134,560.761,146.774Z" fill="#fff"/>
    <text id="Travel" transform="translate(406.493 366.975) rotate(-18.716)" fill="#fff" font-size="73.487" font-family="Yellowtail"><tspan x="0" y="0">Travel</tspan></text>
    <text id="Buddy." transform="translate(411.302 432.778) rotate(-18.716)" fill="#fff" font-size="73.487" font-family="Yellowtail"><tspan x="0" y="0">Buddy.</tspan></text>
  </g>
</svg>
